<mxfile host="app.diagrams.net" agent="Mozilla/5.0 (Windows NT 10.0; Win64; x64) AppleWebKit/537.36 (KHTML, like Gecko) Chrome/133.0.0.0 Safari/537.36" version="26.1.0">
  <diagram name="Page-1" id="WnF2yhdcEvIzFuQnkIwI">
    <mxGraphModel grid="1" page="1" gridSize="10" guides="1" tooltips="1" connect="1" arrows="1" fold="1" pageScale="1" pageWidth="850" pageHeight="1100" math="0" shadow="0">
      <root>
        <mxCell id="0" />
        <mxCell id="1" parent="0" />
        <mxCell id="1Dcwku4esSBJheec2Vt8-1" value="Integration Model" style="text;html=1;align=center;verticalAlign=middle;whiteSpace=wrap;rounded=0;fontSize=28;fontStyle=1" vertex="1" parent="1">
          <mxGeometry x="-20" y="10" width="280" height="30" as="geometry" />
        </mxCell>
        <mxCell id="1Dcwku4esSBJheec2Vt8-2" value="(how the tables are related)" style="text;html=1;align=center;verticalAlign=middle;whiteSpace=wrap;rounded=0;" vertex="1" parent="1">
          <mxGeometry x="220" y="20" width="190" height="30" as="geometry" />
        </mxCell>
        <mxCell id="1Dcwku4esSBJheec2Vt8-3" value="crm_cust_info" style="swimlane;fontStyle=0;childLayout=stackLayout;horizontal=1;startSize=30;horizontalStack=0;resizeParent=1;resizeParentMax=0;resizeLast=0;collapsible=1;marginBottom=0;whiteSpace=wrap;html=1;rounded=1;fillColor=#dae8fc;strokeColor=#6c8ebf;fontSize=26;" vertex="1" parent="1">
          <mxGeometry x="520" y="400" width="240" height="90" as="geometry" />
        </mxCell>
        <mxCell id="1Dcwku4esSBJheec2Vt8-4" value="cst_id&amp;nbsp;" style="text;strokeColor=none;fillColor=none;align=left;verticalAlign=middle;spacingLeft=4;spacingRight=4;overflow=hidden;points=[[0,0.5],[1,0.5]];portConstraint=eastwest;rotatable=0;whiteSpace=wrap;html=1;fontSize=26;" vertex="1" parent="1Dcwku4esSBJheec2Vt8-3">
          <mxGeometry y="30" width="240" height="30" as="geometry" />
        </mxCell>
        <mxCell id="1Dcwku4esSBJheec2Vt8-26" value="cst_key" style="text;strokeColor=none;fillColor=none;align=left;verticalAlign=middle;spacingLeft=4;spacingRight=4;overflow=hidden;points=[[0,0.5],[1,0.5]];portConstraint=eastwest;rotatable=0;whiteSpace=wrap;html=1;fontSize=26;" vertex="1" parent="1Dcwku4esSBJheec2Vt8-3">
          <mxGeometry y="60" width="240" height="30" as="geometry" />
        </mxCell>
        <mxCell id="1Dcwku4esSBJheec2Vt8-7" value="&lt;font style=&quot;font-size: 20px;&quot;&gt;customer information&amp;nbsp;&lt;/font&gt;" style="text;html=1;align=center;verticalAlign=middle;whiteSpace=wrap;rounded=0;" vertex="1" parent="1">
          <mxGeometry x="500" y="370" width="250" height="30" as="geometry" />
        </mxCell>
        <mxCell id="1Dcwku4esSBJheec2Vt8-8" value="crm_prd_info" style="swimlane;fontStyle=0;childLayout=stackLayout;horizontal=1;startSize=30;horizontalStack=0;resizeParent=1;resizeParentMax=0;resizeLast=0;collapsible=1;marginBottom=0;whiteSpace=wrap;html=1;rounded=1;fillColor=#dae8fc;strokeColor=#6c8ebf;fontSize=26;" vertex="1" parent="1">
          <mxGeometry x="520" y="190" width="240" height="60" as="geometry" />
        </mxCell>
        <mxCell id="1Dcwku4esSBJheec2Vt8-9" value="prd_key" style="text;strokeColor=none;fillColor=none;align=left;verticalAlign=middle;spacingLeft=4;spacingRight=4;overflow=hidden;points=[[0,0.5],[1,0.5]];portConstraint=eastwest;rotatable=0;whiteSpace=wrap;html=1;fontSize=26;" vertex="1" parent="1Dcwku4esSBJheec2Vt8-8">
          <mxGeometry y="30" width="240" height="30" as="geometry" />
        </mxCell>
        <mxCell id="1Dcwku4esSBJheec2Vt8-10" value="&lt;span style=&quot;font-size: 20px;&quot;&gt;Transactional Records of sales and Orders&amp;nbsp;&lt;/span&gt;&lt;div&gt;&lt;span style=&quot;font-size: 20px;&quot;&gt;&lt;br&gt;&lt;/span&gt;&lt;/div&gt;" style="text;html=1;align=center;verticalAlign=middle;whiteSpace=wrap;rounded=0;" vertex="1" parent="1">
          <mxGeometry x="100" y="240" width="340" height="30" as="geometry" />
        </mxCell>
        <mxCell id="1Dcwku4esSBJheec2Vt8-15" value="crm_prd_info" style="swimlane;fontStyle=0;childLayout=stackLayout;horizontal=1;startSize=30;horizontalStack=0;resizeParent=1;resizeParentMax=0;resizeLast=0;collapsible=1;marginBottom=0;whiteSpace=wrap;html=1;rounded=1;fillColor=#dae8fc;strokeColor=#6c8ebf;fontSize=26;" vertex="1" parent="1">
          <mxGeometry x="160" y="270" width="240" height="90" as="geometry" />
        </mxCell>
        <mxCell id="1Dcwku4esSBJheec2Vt8-16" value="prd_key" style="text;strokeColor=none;fillColor=none;align=left;verticalAlign=middle;spacingLeft=4;spacingRight=4;overflow=hidden;points=[[0,0.5],[1,0.5]];portConstraint=eastwest;rotatable=0;whiteSpace=wrap;html=1;fontSize=26;" vertex="1" parent="1Dcwku4esSBJheec2Vt8-15">
          <mxGeometry y="30" width="240" height="30" as="geometry" />
        </mxCell>
        <mxCell id="1Dcwku4esSBJheec2Vt8-18" value="cst_id" style="text;strokeColor=none;fillColor=none;align=left;verticalAlign=middle;spacingLeft=4;spacingRight=4;overflow=hidden;points=[[0,0.5],[1,0.5]];portConstraint=eastwest;rotatable=0;whiteSpace=wrap;html=1;fontSize=26;" vertex="1" parent="1Dcwku4esSBJheec2Vt8-15">
          <mxGeometry y="60" width="240" height="30" as="geometry" />
        </mxCell>
        <mxCell id="1Dcwku4esSBJheec2Vt8-17" value="&lt;font style=&quot;font-size: 20px;&quot;&gt;current &amp;amp; history product information&amp;nbsp;&lt;/font&gt;&lt;div&gt;&lt;font style=&quot;font-size: 20px;&quot;&gt;&amp;nbsp;&lt;/font&gt;&lt;/div&gt;" style="text;html=1;align=center;verticalAlign=middle;whiteSpace=wrap;rounded=0;" vertex="1" parent="1">
          <mxGeometry x="490" y="170" width="340" height="30" as="geometry" />
        </mxCell>
        <mxCell id="1Dcwku4esSBJheec2Vt8-20" style="edgeStyle=orthogonalEdgeStyle;rounded=0;orthogonalLoop=1;jettySize=auto;html=1;exitX=1;exitY=0.5;exitDx=0;exitDy=0;entryX=0;entryY=0.5;entryDx=0;entryDy=0;" edge="1" parent="1" source="1Dcwku4esSBJheec2Vt8-18" target="1Dcwku4esSBJheec2Vt8-4">
          <mxGeometry relative="1" as="geometry" />
        </mxCell>
        <mxCell id="1Dcwku4esSBJheec2Vt8-21" style="edgeStyle=orthogonalEdgeStyle;rounded=0;orthogonalLoop=1;jettySize=auto;html=1;entryX=0;entryY=0.5;entryDx=0;entryDy=0;" edge="1" parent="1" source="1Dcwku4esSBJheec2Vt8-16" target="1Dcwku4esSBJheec2Vt8-9">
          <mxGeometry relative="1" as="geometry" />
        </mxCell>
        <mxCell id="1Dcwku4esSBJheec2Vt8-24" value="erp_cust_az12" style="swimlane;fontStyle=0;childLayout=stackLayout;horizontal=1;startSize=30;horizontalStack=0;resizeParent=1;resizeParentMax=0;resizeLast=0;collapsible=1;marginBottom=0;whiteSpace=wrap;html=1;rounded=1;fillColor=#fff2cc;strokeColor=#d6b656;fontSize=26;" vertex="1" parent="1">
          <mxGeometry x="1120" y="380" width="240" height="60" as="geometry" />
        </mxCell>
        <mxCell id="1Dcwku4esSBJheec2Vt8-25" value="cid" style="text;strokeColor=none;fillColor=none;align=left;verticalAlign=middle;spacingLeft=4;spacingRight=4;overflow=hidden;points=[[0,0.5],[1,0.5]];portConstraint=eastwest;rotatable=0;whiteSpace=wrap;html=1;fontSize=26;" vertex="1" parent="1Dcwku4esSBJheec2Vt8-24">
          <mxGeometry y="30" width="240" height="30" as="geometry" />
        </mxCell>
        <mxCell id="1Dcwku4esSBJheec2Vt8-28" value="&lt;span style=&quot;font-size: 20px;&quot;&gt;Location of Customers (country )&lt;/span&gt;" style="text;html=1;align=center;verticalAlign=middle;whiteSpace=wrap;rounded=0;" vertex="1" parent="1">
          <mxGeometry x="1083" y="500" width="385" height="30" as="geometry" />
        </mxCell>
        <mxCell id="1Dcwku4esSBJheec2Vt8-29" value="erp_loc_a101" style="swimlane;fontStyle=0;childLayout=stackLayout;horizontal=1;startSize=30;horizontalStack=0;resizeParent=1;resizeParentMax=0;resizeLast=0;collapsible=1;marginBottom=0;whiteSpace=wrap;html=1;rounded=1;fillColor=#fff2cc;strokeColor=#d6b656;fontSize=26;" vertex="1" parent="1">
          <mxGeometry x="1120" y="530" width="240" height="60" as="geometry" />
        </mxCell>
        <mxCell id="1Dcwku4esSBJheec2Vt8-30" value="cid" style="text;strokeColor=none;fillColor=none;align=left;verticalAlign=middle;spacingLeft=4;spacingRight=4;overflow=hidden;points=[[0,0.5],[1,0.5]];portConstraint=eastwest;rotatable=0;whiteSpace=wrap;html=1;fontSize=26;" vertex="1" parent="1Dcwku4esSBJheec2Vt8-29">
          <mxGeometry y="30" width="240" height="30" as="geometry" />
        </mxCell>
        <mxCell id="1Dcwku4esSBJheec2Vt8-38" value="erp_px_cat_g1v2" style="swimlane;fontStyle=0;childLayout=stackLayout;horizontal=1;startSize=30;horizontalStack=0;resizeParent=1;resizeParentMax=0;resizeLast=0;collapsible=1;marginBottom=0;whiteSpace=wrap;html=1;rounded=1;fillColor=#fff2cc;strokeColor=#d6b656;fontSize=26;" vertex="1" parent="1">
          <mxGeometry x="1120" y="190" width="240" height="60" as="geometry" />
        </mxCell>
        <mxCell id="1Dcwku4esSBJheec2Vt8-39" value="id" style="text;strokeColor=none;fillColor=none;align=left;verticalAlign=middle;spacingLeft=4;spacingRight=4;overflow=hidden;points=[[0,0.5],[1,0.5]];portConstraint=eastwest;rotatable=0;whiteSpace=wrap;html=1;fontSize=26;" vertex="1" parent="1Dcwku4esSBJheec2Vt8-38">
          <mxGeometry y="30" width="240" height="30" as="geometry" />
        </mxCell>
        <mxCell id="1Dcwku4esSBJheec2Vt8-43" style="edgeStyle=orthogonalEdgeStyle;rounded=0;orthogonalLoop=1;jettySize=auto;html=1;entryX=1;entryY=0.5;entryDx=0;entryDy=0;" edge="1" parent="1" source="1Dcwku4esSBJheec2Vt8-39" target="1Dcwku4esSBJheec2Vt8-9">
          <mxGeometry relative="1" as="geometry" />
        </mxCell>
        <mxCell id="1Dcwku4esSBJheec2Vt8-45" value="&lt;span style=&quot;font-size: 20px;&quot;&gt;Extra Customer Information (Birthdate)&lt;/span&gt;" style="text;html=1;align=center;verticalAlign=middle;whiteSpace=wrap;rounded=0;" vertex="1" parent="1">
          <mxGeometry x="1090" y="340" width="385" height="30" as="geometry" />
        </mxCell>
        <mxCell id="1Dcwku4esSBJheec2Vt8-46" value="&lt;span style=&quot;font-size: 20px;&quot;&gt;Product Categories&lt;/span&gt;" style="text;html=1;align=center;verticalAlign=middle;whiteSpace=wrap;rounded=0;" vertex="1" parent="1">
          <mxGeometry x="1140" y="160" width="385" height="30" as="geometry" />
        </mxCell>
        <mxCell id="1Dcwku4esSBJheec2Vt8-48" value="" style="rounded=1;whiteSpace=wrap;html=1;fillColor=none;dashed=1;" vertex="1" parent="1">
          <mxGeometry x="100" y="90" width="750" height="530" as="geometry" />
        </mxCell>
        <mxCell id="1Dcwku4esSBJheec2Vt8-50" value="&lt;font style=&quot;font-size: 40px;&quot;&gt;CRM&lt;/font&gt;" style="rounded=1;whiteSpace=wrap;html=1;fillColor=#dae8fc;strokeColor=#6c8ebf;" vertex="1" parent="1">
          <mxGeometry x="390" y="60" width="120" height="60" as="geometry" />
        </mxCell>
        <mxCell id="1Dcwku4esSBJheec2Vt8-51" value="" style="rounded=1;whiteSpace=wrap;html=1;fillColor=none;dashed=1;" vertex="1" parent="1">
          <mxGeometry x="885" y="100" width="750" height="530" as="geometry" />
        </mxCell>
        <mxCell id="1Dcwku4esSBJheec2Vt8-54" style="edgeStyle=orthogonalEdgeStyle;rounded=0;orthogonalLoop=1;jettySize=auto;html=1;exitX=0.5;exitY=1;exitDx=0;exitDy=0;" edge="1" parent="1" source="1Dcwku4esSBJheec2Vt8-50" target="1Dcwku4esSBJheec2Vt8-50">
          <mxGeometry relative="1" as="geometry" />
        </mxCell>
        <mxCell id="1Dcwku4esSBJheec2Vt8-55" value="&lt;font style=&quot;font-size: 40px;&quot;&gt;ERP&lt;/font&gt;" style="rounded=1;whiteSpace=wrap;html=1;fillColor=#fff2cc;strokeColor=#d6b656;" vertex="1" parent="1">
          <mxGeometry x="1200" y="70" width="120" height="60" as="geometry" />
        </mxCell>
        <mxCell id="bwg0EofnIhpIx8nxRnz3-1" value="&lt;span style=&quot;font-size: 20px;&quot;&gt;&lt;b&gt;PRODUCT&amp;nbsp;&lt;/b&gt;&lt;/span&gt;" style="text;html=1;strokeColor=#b85450;fillColor=#f8cecc;align=center;verticalAlign=middle;whiteSpace=wrap;overflow=hidden;" vertex="1" parent="1">
          <mxGeometry x="520" y="250" width="240" height="30" as="geometry" />
        </mxCell>
        <mxCell id="bwg0EofnIhpIx8nxRnz3-2" value="&lt;span style=&quot;font-size: 20px;&quot;&gt;&lt;b&gt;PRODUCT&amp;nbsp;&lt;/b&gt;&lt;/span&gt;" style="text;html=1;strokeColor=#b85450;fillColor=#f8cecc;align=center;verticalAlign=middle;whiteSpace=wrap;overflow=hidden;" vertex="1" parent="1">
          <mxGeometry x="1120" y="250" width="240" height="30" as="geometry" />
        </mxCell>
        <mxCell id="bwg0EofnIhpIx8nxRnz3-3" value="&lt;span style=&quot;font-size: 20px;&quot;&gt;&lt;b&gt;CUSTOMER&amp;nbsp;&lt;/b&gt;&lt;/span&gt;" style="text;html=1;strokeColor=#82b366;fillColor=#d5e8d4;align=center;verticalAlign=middle;whiteSpace=wrap;overflow=hidden;" vertex="1" parent="1">
          <mxGeometry x="520" y="490" width="240" height="30" as="geometry" />
        </mxCell>
        <mxCell id="bwg0EofnIhpIx8nxRnz3-5" value="&lt;span style=&quot;font-size: 20px;&quot;&gt;&lt;b&gt;CUSTOMER&amp;nbsp;&lt;/b&gt;&lt;/span&gt;" style="text;html=1;strokeColor=#82b366;fillColor=#d5e8d4;align=center;verticalAlign=middle;whiteSpace=wrap;overflow=hidden;" vertex="1" parent="1">
          <mxGeometry x="1120" y="440" width="240" height="30" as="geometry" />
        </mxCell>
        <mxCell id="bwg0EofnIhpIx8nxRnz3-6" value="&lt;span style=&quot;font-size: 20px;&quot;&gt;&lt;b&gt;CUSTOMER&amp;nbsp;&lt;/b&gt;&lt;/span&gt;" style="text;html=1;strokeColor=#82b366;fillColor=#d5e8d4;align=center;verticalAlign=middle;whiteSpace=wrap;overflow=hidden;" vertex="1" parent="1">
          <mxGeometry x="1120" y="590" width="240" height="30" as="geometry" />
        </mxCell>
        <mxCell id="bwg0EofnIhpIx8nxRnz3-7" value="&lt;span style=&quot;font-size: 20px;&quot;&gt;&lt;b&gt;SALES&amp;nbsp;&lt;/b&gt;&lt;/span&gt;" style="text;html=1;strokeColor=#9673a6;fillColor=#e1d5e7;align=center;verticalAlign=middle;whiteSpace=wrap;overflow=hidden;" vertex="1" parent="1">
          <mxGeometry x="160" y="360" width="240" height="30" as="geometry" />
        </mxCell>
        <mxCell id="bwg0EofnIhpIx8nxRnz3-8" style="edgeStyle=orthogonalEdgeStyle;rounded=0;orthogonalLoop=1;jettySize=auto;html=1;entryX=1;entryY=0.25;entryDx=0;entryDy=0;" edge="1" parent="1" source="1Dcwku4esSBJheec2Vt8-25" target="bwg0EofnIhpIx8nxRnz3-3">
          <mxGeometry relative="1" as="geometry" />
        </mxCell>
        <mxCell id="bwg0EofnIhpIx8nxRnz3-9" style="edgeStyle=orthogonalEdgeStyle;rounded=0;orthogonalLoop=1;jettySize=auto;html=1;entryX=1;entryY=0.25;entryDx=0;entryDy=0;" edge="1" parent="1" source="1Dcwku4esSBJheec2Vt8-30" target="bwg0EofnIhpIx8nxRnz3-3">
          <mxGeometry relative="1" as="geometry" />
        </mxCell>
      </root>
    </mxGraphModel>
  </diagram>
</mxfile>
